<?xml version="1.0" encoding="utf-8"?>
<svg xmlns="http://www.w3.org/2000/svg" xmlns:xlink="http://www.w3.org/1999/xlink" style="margin: auto; background: none; display: block; shape-rendering: auto;" width="210px" height="210px" viewBox="0 0 100 100" preserveAspectRatio="xMidYMid">
<g transform="translate(50 50)">
<g>
<animateTransform attributeName="transform" type="rotate" values="0;45" keyTimes="0;1" dur="0.53475935828877s" repeatCount="indefinite"></animateTransform><path d="M26.433879775772606 -5.5 L37.43387977577261 -5.5 L37.43387977577261 5.5 L26.433879775772606 5.5 A27 27 0 0 1 22.580662939044757 14.80248834599273 L22.580662939044757 14.80248834599273 L30.35883753209678 22.58066293904475 L22.580662939044757 30.358837532096775 L14.802488345992733 22.580662939044753 A27 27 0 0 1 5.500000000000001 26.433879775772606 L5.500000000000001 26.433879775772606 L5.500000000000002 37.43387977577261 L-5.499999999999997 37.43387977577261 L-5.499999999999998 26.433879775772606 A27 27 0 0 1 -14.802488345992725 22.58066293904476 L-14.802488345992725 22.58066293904476 L-22.580662939044746 30.358837532096786 L-30.35883753209678 22.580662939044753 L-22.580662939044757 14.80248834599273 A27 27 0 0 1 -26.433879775772603 5.500000000000009 L-26.433879775772603 5.500000000000009 L-37.4338797757726 5.500000000000011 L-37.43387977577261 -5.5 L-26.433879775772606 -5.500000000000002 A27 27 0 0 1 -22.58066293904476 -14.802488345992725 L-22.58066293904476 -14.802488345992725 L-30.358837532096786 -22.580662939044746 L-22.580662939044753 -30.35883753209678 L-14.80248834599273 -22.580662939044757 A27 27 0 0 1 -5.50000000000001 -26.433879775772603 L-5.50000000000001 -26.433879775772603 L-5.5000000000000115 -37.4338797757726 L5.499999999999998 -37.43387977577261 L5.5 -26.433879775772606 A27 27 0 0 1 14.802488345992725 -22.580662939044764 L14.802488345992725 -22.580662939044764 L22.580662939044746 -30.35883753209679 L30.35883753209678 -22.580662939044757 L22.580662939044757 -14.802488345992733 A27 27 0 0 1 26.433879775772603 -5.5000000000000115 M0 -14A14 14 0 1 0 0 14 A14 14 0 1 0 0 -14" fill="#0a0a0a"></path></g></g>
<!-- [ldio] generated by https://loading.io/ --></svg>